<?xml version="1.0" encoding="UTF-8" standalone="no"?>
<!-- Created with Inkscape (http://www.inkscape.org/) -->

<svg
   xmlns:dc="http://purl.org/dc/elements/1.1/"
   xmlns:cc="http://creativecommons.org/ns#"
   xmlns:rdf="http://www.w3.org/1999/02/22-rdf-syntax-ns#"
   xmlns:svg="http://www.w3.org/2000/svg"
   xmlns="http://www.w3.org/2000/svg"
   xmlns:sodipodi="http://sodipodi.sourceforge.net/DTD/sodipodi-0.dtd"
   xmlns:inkscape="http://www.inkscape.org/namespaces/inkscape"
   version="1.1"
   id="svg2"
   width="82.969208"
   height="125.97495"
   viewBox="0 0 82.969208 125.97495"
   sodipodi:docname="f.svg"
   inkscape:version="0.92.4 (5da689c313, 2019-01-14)">
  <metadata
     id="metadata8">
    <rdf:RDF>
      <cc:Work
         rdf:about="">
        <dc:format>image/svg+xml</dc:format>
        <dc:type
           rdf:resource="http://purl.org/dc/dcmitype/StillImage" />
        <dc:title></dc:title>
      </cc:Work>
    </rdf:RDF>
  </metadata>
  <defs
     id="defs6" />
  <sodipodi:namedview
     pagecolor="#ffffff"
     bordercolor="#666666"
     borderopacity="1"
     objecttolerance="10"
     gridtolerance="10"
     guidetolerance="10"
     inkscape:pageopacity="0"
     inkscape:pageshadow="2"
     inkscape:window-width="1920"
     inkscape:window-height="1001"
     id="namedview4"
     showgrid="false"
     inkscape:zoom="3.0849673"
     inkscape:cx="20.213447"
     inkscape:cy="49.111771"
     inkscape:window-x="-9"
     inkscape:window-y="-9"
     inkscape:window-maximized="1"
     inkscape:current-layer="svg2" />
  <path
     style="fill:#000000"
     d="m 25.129695,115.81941 c -9.98131,-9.7801 -10.29611,-10.22095 -9.08653,-12.72524 1.60166,-3.316048 1.43161,-4.727538 -2.6015,-21.59417 -1.8412,-7.7 -3.8862703,-16.822637 -4.5445903,-20.272526 -1.03777,-5.438383 -1.71099,-6.679655 -5.06241,-9.334029 -2.126,-1.683827 -3.85155001,-3.81119 -3.83454001117,-4.727474 C 0.01712469,46.249687 2.1094447,43.933273 4.6496947,42.018384 c 2.71073,-2.043392 6.9321403,-7.000485 10.2190803,-12 C 19.594405,22.830596 21.268785,21.109493 25.588025,19 l 5.11883,-2.5 0.4559,-5.900857 C 31.739055,3.1397822 34.752795,0 41.336405,0 c 6.70504,0 10.6328,4.7671282 10.6328,12.90504 0,3.509436 0.27777,3.866512 3.95065,5.078674 4.70807,1.553803 7.4754,4.387961 12.475294,12.776546 2.05223,3.443143 6.17095,8.366469 9.1527,10.940725 2.98175,2.574256 5.42136,4.985429 5.42136,5.358161 0,0.372733 -1.962,2.649407 -4.36,5.059275 -3.55047,3.568042 -4.49595,5.30994 -5.09222,9.381579 -0.40272,2.75 -2.07441,10.625 -3.71485,17.5 -4.674154,19.588992 -4.876034,21.11845 -3.169014,24.00822 1.473864,2.49504 1.349394,2.67467 -8.8345,12.74871 l -10.32942,10.21801 -6,-0.0122 -6,-0.0122 -10.33951,-10.13107 z m 18.08951,8.47486 c -1.2375,-0.23836 -3.2625,-0.23836 -4.5,0 -1.2375,0.23835 -0.225,0.43337 2.25,0.43337 2.475,0 3.4875,-0.19502 2.25,-0.43337 z M 48.585035,119 l 4.33948,-4 h -11.6806 -11.68061 l 3.9059,4 c 3.05869,3.13239 4.65101,4 7.34112,4 2.61784,0 4.46776,-0.95176 7.77471,-4 z m -20.23686,-5.80417 c 0.27335,-0.44229 -0.87729,-1.32291 -2.55698,-1.95692 -2.99205,-1.12937 -3.01807,-1.11306 -1.283,0.80417 1.89732,2.09652 3.04396,2.44074 3.83998,1.15275 z m 19.41022,0.0663 c -3.14095,-0.19781 -8.54095,-0.19942 -12,-0.004 -3.45906,0.19583 -0.88919,0.35767 5.71081,0.35965 6.6,0.002 9.43013,-0.15825 6.28919,-0.35606 z m 11.14057,-1.68741 2.27838,-2.42523 -3.54958,1.60888 c -1.95228,0.88488 -3.32255,1.97624 -3.04506,2.42523 0.83321,1.34816 1.91821,0.94373 4.31626,-1.60888 z m -28.92976,-0.96773 c 0,-0.21616 -0.69837,-0.661 -1.55194,-0.98855 -0.88992,-0.34149 -1.29132,-0.17385 -0.94098,0.39301 0.58726,0.95021 2.49292,1.40545 2.49292,0.59554 z m 31,-4.15835 c 0,-0.275 -1.35,0.19811 -3,1.05136 -1.65,0.85325 -3,1.77636 -3,2.05136 0,0.275 1.35,-0.19811 3,-1.05136 1.65,-0.85325 3,-1.77636 3,-2.05136 z m -8,2.16799 c 0,-0.88773 -4.04569,-1.35173 -4.55802,-0.52275 -0.30801,0.49837 0.59154,0.90612 1.999,0.90612 1.40746,0 2.55902,-0.17252 2.55902,-0.38337 z M 47.424345,103.75 c 0.30017,-1.7875 1.21615,-12.249998 2.03551,-23.25 0.81935,-11 1.76333,-22.5875 2.09773,-25.75 L 52.165575,49 h -14.13263 -14.13263 l 0.63843,5.25 c 0.35113,2.8875 2.16663,15.70676 4.03444,28.487244 1.86781,12.780488 3.39602,23.467986 3.39602,23.749996 0,0.28202 3.35461,0.51276 7.45469,0.51276 h 7.45468 z m 17.05677,-0.50714 c -1.71278,-1.56917 -1.77468,-1.57282 -0.62105,-0.0367 0.70473,0.9384 0.95156,2.2884 0.54853,3 -0.59012,1.04189 -0.4692,1.04903 0.62105,0.0367 1.13102,-1.05023 1.04074,-1.544 -0.54853,-3 z m -36.89832,0.007 c -0.28664,-0.9625 -1.00345,-6.261548 -1.59289,-11.775678 -1.28963,-12.064144 -5.66892,-40.455733 -6.34434,-41.131152 -0.68813,-0.688133 -8.67636,1.822211 -8.67636,2.726594 0,0.414177 1.07416,5.405447 2.38701,11.091712 1.31286,5.686265 3.6158,16.188664 5.11764,23.338668 2.30532,10.975188 3.14063,13.349676 5.36299,15.245026 3.16389,2.69835 4.45085,2.87184 3.74595,0.50497 z M 63.321765,91.272172 C 64.717465,85.347477 66.154645,78.7 66.515495,76.5 c 0.360854,-2.2 1.462454,-7.375 2.447994,-11.5 3.37648,-14.1323 3.54563,-12.588913 -1.53563,-14.011578 -2.483804,-0.695421 -4.665784,-1.089807 -4.848834,-0.876412 -0.37729,0.439826 -5.22248,34.488726 -6.103,42.887992 -0.31712,3.025 -0.84375,7.003978 -1.17028,8.842168 l -0.5937,3.34218 3.03604,-1.57001 c 2.78549,-1.44043 3.24548,-2.45902 5.57368,-12.342168 z m -9.97389,8.10042 c -0.3311,-1.31921 -0.0646,-3.04612 0.59228,-3.83759 0.65686,-0.79146 0.9182,-2.30891 0.58075,-3.3721 -0.33744,-1.0632 -0.12284,-3.010048 0.47691,-4.326338 1.20689,-2.648852 -0.29835,-8.405923 -1.93358,-7.395296 -0.49979,0.308889 -0.42167,-1.025321 0.17361,-2.96491 0.77898,-2.538164 1.33984,-3.169165 2.00117,-2.251443 0.6099,0.846345 0.67689,0.602596 0.19924,-0.724915 -0.39579,-1.1 -1.05608,-3.705339 -1.46731,-5.789641 -1.07491,-5.448168 -1.683,-5.441347 -1.86328,0.0209 -0.4667,14.140735 -0.45846,19.969005 0.0308,21.768745 0.29903,1.099998 0.34922,1.431988 0.11154,0.737758 -0.86947,-2.539528 -2.28043,-0.006 -2.26714,4.07126 0.0206,6.335008 0.9271,8.985038 2.59882,7.597628 0.83507,-0.69304 1.13362,-2.0701 0.76619,-3.534058 z m -2.29972,-2.95592 c 0.048,-1.16495 0.28494,-1.4019 0.60416,-0.60417 0.28888,0.72187 0.25335,1.58437 -0.0789,1.91667 -0.33229,0.33229 -0.56864,-0.25834 -0.52522,-1.3125 z M 53.164155,84.5 c 0.0204,-1.65 0.2445,-2.203936 0.49804,-1.230968 0.25354,0.972967 0.23687,2.322967 -0.0371,3.000002 C 53.351165,86.946064 53.143725,86.15 53.164105,84.5 Z m -24.51184,10.312502 c -0.31922,-0.79773 -0.55618,-0.56078 -0.60416,0.60417 -0.0434,1.05416 0.19293,1.64479 0.52522,1.3125 0.33229,-0.3323 0.36782,-1.1948 0.079,-1.91667 z M 55.469205,62 c -0.37968,-1.728657 -0.91532,-2.918012 -1.19032,-2.643012 -0.275,0.275 -0.18936,1.914355 0.19032,3.643012 0.37968,1.728657 0.91532,2.918012 1.19032,2.643012 0.275,-0.275 0.18936,-1.914355 -0.19032,-3.643012 z m 1.18311,-7.1875 c -0.31922,-0.797733 -0.55618,-0.560776 -0.60416,0.604167 -0.0434,1.054166 0.19293,1.644791 0.52522,1.3125 0.33229,-0.332292 0.36782,-1.194792 0.079,-1.916667 z m -3,-1 c -0.31922,-0.797733 -0.55618,-0.560776 -0.60416,0.604167 -0.0434,1.054166 0.19293,1.644791 0.52522,1.3125 0.33229,-0.332292 0.36782,-1.194792 0.079,-1.916667 z M 78.096769,50.25 c 1.24387,-1.586056 1.2085,-1.621426 -0.37756,-0.377555 -0.9625,0.754844 -1.75,1.542344 -1.75,1.75 0,0.823034 0.82119,0.293303 2.12756,-1.372445 z M 15.969205,47.893011 c 0,-1.059162 -2.13884,-1.1607 -4.5951,-0.218145 -1.6297703,0.625403 -1.6174403,0.725201 0.16822,1.361615 2.17762,0.776111 4.42688,0.195123 4.42688,-1.14347 z m 60.000004,-0.334653 c 0.825,-0.179495 -0.8625,-0.378556 -3.75,-0.442357 -2.8875,-0.0638 -5.25,0.243639 -5.25,0.683198 0,0.722511 5.21345,0.582998 9,-0.240841 z M 22.698375,47.395833 c -0.33229,-0.332291 -1.19479,-0.367818 -1.91667,-0.07895 -0.79773,0.319226 -0.56078,0.556183 0.60417,0.604167 1.05416,0.04342 1.64479,-0.192928 1.3125,-0.52522 z m 35.02083,-0.08516 c -0.9625,-0.251527 -2.5375,-0.251527 -3.5,0 -0.9625,0.251528 -0.175,0.457323 1.75,0.457323 1.925,0 2.7125,-0.205795 1.75,-0.457323 z m 9.805214,-3.885109 c -6.486544,-2.265518 -8.268094,-2.421878 -27.000004,-2.369692 -17.27405,0.04812 -20.67925,0.316311 -24.55521,1.933928 l -4.5,1.878056 23.5,0.335423 c 12.925,0.184482 27.1,0.405718 31.5,0.491636 l 8.000004,0.156215 z M 8.6267247,43.324186 c -0.3717,-0.371697 0.3408,-1.834197 1.5833303,-3.25 l 2.25915,-2.574187 -2.7500003,2.424314 c -2.91803,2.572446 -3.50201,4.075686 -1.58333,4.075686 0.64166,0 0.86255,-0.304116 0.49085,-0.675813 z M 74.969209,42.999999 c 0,-0.55 -0.19844,-1 -0.44098,-1 -0.24254,0 -0.7191,0.45 -1.05902,1 -0.33992,0.55 -0.14148,1 0.44098,1 0.58246,0 1.05902,-0.45 1.05902,-1 z m -6.28544,-5.25 c -1.31297,-1.7875 -3.587614,-5.358094 -5.054754,-7.934653 -1.46714,-2.576559 -3.99942,-5.633048 -5.6273,-6.792199 l -2.95978,-2.107546 2.47271,5.591232 c 3.55009,8.027374 5.29125,10.354431 9.354234,12.501864 1.98018,1.046601 3.73573,1.922798 3.90122,1.947106 0.16549,0.02431 -0.77336,-1.418304 -2.08633,-3.205804 z M 23.656495,29.162726 c 4.07961,-7.998502 4.11688,-8.159469 1.44928,-6.259969 -1.50591,1.072298 -4.81096,5.342108 -7.34456,9.488467 l -4.60654,7.538833 3.15726,-1.278865 c 2.48681,-1.007293 4.04646,-3.022203 7.34456,-9.488466 z m 28.1159,10.092414 c -5.33324,-0.179454 -14.33324,-0.180178 -20,-0.0016 -5.66675,0.178562 -1.30319,0.325389 9.69681,0.326273 11,8.84e-4 15.63644,-0.145219 10.30319,-0.324673 z m 4.06087,-7.894671 c -1.65578,-3.651742 -3.96218,-7.926742 -5.12534,-9.5 C 48.723675,19.176624 48.151175,19 41.436135,19 c -8.3775,0 -8.36753,-0.0079 -14.19487,11.25 L 23.229695,38 h 17.80704 17.80704 z M 22.096765,23.25 c 1.24387,-1.586056 1.2085,-1.621426 -0.37756,-0.377555 -0.9625,0.754844 -1.75,1.542344 -1.75,1.75 0,0.823034 0.82119,0.293303 2.12756,-1.372445 z m 40.87244,1.372445 c 0,-0.207656 -0.7875,-0.995156 -1.75,-1.75 -1.58606,-1.243871 -1.62143,-1.208501 -0.37755,0.377555 1.30636,1.665748 2.12755,2.195479 2.12755,1.372445 z M 43.730865,17.31292 c -0.95609,-0.250293 -2.75609,-0.259374 -4,-0.02018 -1.24391,0.239192 -0.46166,0.443977 1.73834,0.455077 2.2,0.0111 3.21775,-0.184605 2.26166,-0.434897 z M 32.658535,11.25 c -0.25153,-0.9625 -0.45733,-0.175 -0.45733,1.75 0,1.925 0.2058,2.7125 0.45733,1.75 0.25152,-0.9625 0.25152,-2.5375 0,-3.5 z m 2.01793,-0.488341 C 34.437275,9.5177472 34.232485,10.3 34.221385,12.5 c -0.0111,2.2 0.18461,3.217747 0.4349,2.261659 0.25029,-0.956087 0.25937,-2.756087 0.0202,-4 z M 43.779575,12.25 c -0.24931,-3.0122148 -0.75304,-3.8128688 -2.56037,-4.0695508 -2.01709,-0.286472 -2.25,0.10171 -2.25,3.7499998 0,3.699774 0.23265,4.069551 2.56037,4.069551 2.34715,0 2.53452,-0.312277 2.25,-3.75 z m -6.7774,-6.7499998 c 1.35701,-1.850006 1.33579,-1.897071 -0.28297,-0.627555 -0.9625,0.754844 -1.75,1.842344 -1.75,2.416666 0,0.574322 0.12734,0.856722 0.28297,0.627556 0.15563,-0.229167 0.94313,-1.316667 1.75,-2.416667 z m 5.6962,-0.104167 c -0.33229,-0.332291 -1.19479,-0.367818 -1.91667,-0.07895 -0.79773,0.319226 -0.56078,0.556183 0.60417,0.604167 1.05416,0.04342 1.64479,-0.192928 1.3125,-0.52522 z m 1.77083,-1.395833 c -0.33992,-0.55 -1.82898,-0.946758 -3.30902,-0.881685 l -2.69098,0.118315 3,0.76337 c 1.65,0.419854 3.13906,0.816612 3.30902,0.881685 0.16996,0.06507 0.0309,-0.331685 -0.30902,-0.881685 z m -1.77083,-2.604167 c -0.33229,-0.332292 -1.19479,-0.367818 -1.91667,-0.07895 -0.79773,0.319226 -0.56078,0.556182 0.60417,0.604166 1.05416,0.04342 1.64479,-0.192927 1.3125,-0.525219 z"
     id="path817"
     inkscape:connector-curvature="0" />
</svg>
