<?xml version="1.0" encoding="UTF-8" standalone="no"?>
<!-- Created with Inkscape (http://www.inkscape.org/) -->

<svg
   xmlns:dc="http://purl.org/dc/elements/1.1/"
   xmlns:cc="http://creativecommons.org/ns#"
   xmlns:rdf="http://www.w3.org/1999/02/22-rdf-syntax-ns#"
   xmlns:svg="http://www.w3.org/2000/svg"
   xmlns="http://www.w3.org/2000/svg"
   xmlns:sodipodi="http://sodipodi.sourceforge.net/DTD/sodipodi-0.dtd"
   xmlns:inkscape="http://www.inkscape.org/namespaces/inkscape"
   version="1.1"
   id="svg2"
   width="1024"
   height="1024"
   viewBox="0 0 1024 1024"
   sodipodi:docname="patern.svg"
   inkscape:version="0.92.4 (5da689c313, 2019-01-14)">
  <metadata
     id="metadata8">
    <rdf:RDF>
      <cc:Work
         rdf:about="">
        <dc:format>image/svg+xml</dc:format>
        <dc:type
           rdf:resource="http://purl.org/dc/dcmitype/StillImage" />
        <dc:title />
      </cc:Work>
    </rdf:RDF>
  </metadata>
  <defs
     id="defs6" />
  <sodipodi:namedview
     pagecolor="#ffffff"
     bordercolor="#666666"
     borderopacity="1"
     objecttolerance="10"
     gridtolerance="10"
     guidetolerance="10"
     inkscape:pageopacity="0"
     inkscape:pageshadow="2"
     inkscape:window-width="1920"
     inkscape:window-height="1001"
     id="namedview4"
     showgrid="false"
     inkscape:zoom="0.5"
     inkscape:cx="-269.87488"
     inkscape:cy="916.74793"
     inkscape:window-x="-9"
     inkscape:window-y="-9"
     inkscape:window-maximized="1"
     inkscape:current-layer="layer2" />
  <g
     inkscape:groupmode="layer"
     id="layer1"
     inkscape:label="Layer 1">
    <rect
       style="opacity:1;fill:#ececec;fill-opacity:1;fill-rule:nonzero;stroke:none;stroke-width:2;stroke-miterlimit:4;stroke-dasharray:none;stroke-opacity:0.62898554"
       id="rect851"
       width="1024"
       height="1024"
       x="0"
       y="0" />
  </g>
  <g
     inkscape:groupmode="layer"
     id="layer2"
     inkscape:label="Layer 2"
     style="display:inline">
    <path
       style="fill:#6368ff;fill-opacity:1"
       d="m 2.8014387,1022.3032 c -0.33385,-0.87 -0.60699,-24.24337 -0.60699,-51.94097 0,-32.4941 -0.35475,-50.5784 -1,-50.9772 -0.61953004,-0.3829 -1.00000004,-9.3246 -1.00000004,-23.5016 0,-21.5141 0.10793,-22.8628 1.80349004,-22.5362 0.99191,0.191 11.9889913,5.4341 24.4379413,11.6512 16.4011,8.1909 22.78548,11.8661 23.18286,13.3453 0.30162,1.1227 0.55454,29.1859 0.56206,62.3627 0.0115,50.95827 -0.20809,60.54317 -1.41492,61.74997 -1.15138,1.1514 -5.6905,1.4286 -23.39301,1.4286 -19.1062113,0 -22.0434313,-0.2058 -22.5714313,-1.5818 z m 51.1615313,1.3318 c -0.12731,-0.1375 -0.46481,-29.04997 -0.75,-64.24997 l -0.51852,-64 -24.63652,-12.5 c -13.55009,-6.875 -25.3625913,-13.1176 -26.2500013,-13.8724 -1.39729004,-1.1886 -1.61348004,-4.426 -1.61348004,-24.162 v -22.7895 l 2.25000004,0.264 c 1.2375,0.1451 23.9606613,11.1305 50.4959213,24.4119 26.53525,13.2814 48.92392,24.148 49.7526,24.148 1.98353,0 153.78277,-75.8999 154.73617,-77.3684 0.40408,-0.6224 0.74158,-11.3425 0.75,-23.8226 0.009,-13.1436 0.41276,-22.9366 0.95992,-23.2748 0.51954,-0.321 11.06661,4.4713 23.43794,10.6497 16.29275,8.1368 22.6445,11.7962 23.04173,13.2748 0.75515,2.8109 0.69464,43.4954 -0.0689,46.3462 -0.50791,1.8964 -18.67496,11.3367 -102.48634,53.2557 l -101.86904,50.9508 v 49.9125 c 0,27.4519 -0.27314,50.62427 -0.60699,51.49427 -0.52903,1.3787 -3.547065,1.5818 -23.5,1.5818 -12.59115,0 -22.99717,-0.1125 -23.12449,-0.25 z m 50.83847,-1.3318 c -0.33385,-0.87 -0.60699,-23.56427 -0.60699,-50.43187 v -48.8501 l 2.75,-1.8747 c 1.5125,-1.031 47.64488,-24.2854 102.51639,-51.6763 l 99.76639,-49.8017 -0.26639,-26.1418 -0.26639,-26.1417 -25.25,-12.7661 -25.25,-12.766 v -23.0153 c 0,-18.6571 0.26158,-23.1157 1.38136,-23.5454 1.41402,-0.5426 92.70379,44.5479 95.86864,47.3522 1.62204,1.4372 1.75,5.1558 1.75,50.8562 0,38.1574 -0.28263,49.5686 -1.25,50.4687 -0.6875,0.6398 -46.7,23.945 -102.25,51.7895 l -101,50.6262 -0.5298,38.5 c -0.29139,21.17497 -0.62889,38.61247 -0.75,38.74997 -0.12111,0.1375 -10.52206,0.25 -23.11321,0.25 -19.95294,0 -22.97097,-0.2031 -23.5,-1.5818 z m 51,0 c -0.33385,-0.87 -0.60699,-17.7272 -0.60699,-37.46057 0,-27.416 0.29484,-36.1531 1.25,-37.0419 0.6875,-0.6398 46.7,-23.945 102.25,-51.7895 l 101,-50.6262 v -51.9854 -51.9855 l -50.75,-25.468 -50.75,-25.4681 v -23.29652 c 0,-21.5406 0.1319,-23.2925 1.75,-23.2435 0.9625,0.029 34.6,16.5666 74.75,36.75002 l 73,36.697 0.25629,75.7609 0.25629,75.7609 -3.25629,1.9843 c -1.79096,1.0913 -47.91879,24.299 -102.50629,51.5725 l -99.25,49.5882 v 24.3348 c 0,13.38417 -0.27314,25.04657 -0.60699,25.91657 -0.52892,1.3784 -3.53763,1.5818 -23.39301,1.5818 -19.85538,0 -22.86409,-0.2034 -23.39301,-1.5818 z m 52.048,-0.2469 c -1.43254,-1.583 -1.65315,-4.7081 -1.64134,-23.24997 0.008,-11.7817 0.29146,-22.4585 0.631,-23.7262 0.50791,-1.8964 18.67496,-11.3366 102.48634,-53.2557 l 101.86901,-50.9508 v -77.4769 -77.4769 l -23.21602,-11.7674 c -12.76881,-6.4721 -23.37539,-12.3121 -23.57018,-12.9779 -0.38878,-1.3289 42.56784,-23.28952 45.556,-23.28952 0.98295,0 12.34936,5.3112 25.25869,11.80262 l 23.47151,11.8026 0.5,102.4474 0.5,102.4474 77.47805,38.8696 77.4782,38.8696 23.6157,-11.7751 c 12.9887,-6.4763 24.136,-11.4536 24.7719,-11.0606 1.755,1.0847 1.6185,44.9679 -0.1444,46.4309 -2.2014,1.8271 -46.8841,24.16557 -48.3372,24.16557 -0.7514,0 -46.8144,-22.72497 -102.36225,-50.49997 -55.54784,-27.775 -101.67313,-50.5 -102.50064,-50.5 -1.98212,0 -153.78131,75.901 -154.73405,77.3684 -0.40408,0.6224 -0.74158,5.93227 -0.75,11.79977 -0.008,5.8675 -0.28845,11.38 -0.6223,12.25 -0.52773,1.3753 -3.44527,1.5818 -22.34501,1.5818 -19.78945,0 -21.88638,-0.1639 -23.39301,-1.8287 z m 50.952,0.2469 c -0.33385,-0.87 -0.60699,-6.4944 -0.60699,-12.4987 v -10.91687 l 74.99737,-37.5013 c 41.24855,-20.6257 75.78605,-37.4973 76.75,-37.4924 1.7926,0.01 198.41938,97.97867 196.70078,98.00637 -0.5215,0.01 -0.2732,0.4515 0.5518,0.9847 0.9805,0.6336 -14.2598,0.9696 -44,0.9701 -37.50956,7e-4 -46.24296,-0.2581 -49.73117,-1.4733 -2.32717,-0.8107 -26.28787,-12.5041 -53.246,-25.98537 -26.95813,-13.4813 -49.69634,-24.5114 -50.52935,-24.5114 -0.83301,0 -23.98719,11.25 -51.45373,25 -27.46654,13.74997 -50.61022,24.99997 -51.43041,24.99997 -0.82019,0 -1.76937,0.45 -2.10929,1 -0.38217,0.6184 -9.14139,1 -22.95203,1 -19.44319,0 -22.41256,-0.2047 -22.94098,-1.5818 z m 55.93291,0.3384 c 0.55622,-1.4495 92.641,-47.75657 94.96718,-47.75657 1.92444,0 93.30829,45.67247 95.23109,47.59527 1.25852,1.2585 -4.56965,1.3875 -45.39714,1.0042 -56.26275,-0.5282 -43.59344,-0.5282 -99.06718,-2e-4 -37.33816,0.3554 -46.13152,0.1934 -45.73395,-0.8427 z m 307.01005,-0.026 c 0.2679,-0.6983 10.6038,-6.322 22.9686,-12.4971 l 22.4814,-11.22767 0.015,-24.7529 c 0.01,-13.6141 0.3459,-25.261 0.75,-25.882 1.1019,-1.6934 42.90396,-22.3709 45.22556,-22.3709 1.9841,0 2.0091,0.5946 2.0091,47.8 0,35.84437 -0.3001,48.10007 -1.2,48.99997 -1.7987,1.7987 -92.94056,1.73 -92.24996,-0.07 z m 97.94996,0.2694 c 0.3399,-0.55 0.1415,-1 -0.441,-1 -1.16,0 -1.5756,-95.48997 -0.4286,-98.47907 0.6534,-1.7029 43.1941,-23.5209 45.8609,-23.5209 1.3283,0 1.5087,7.2251 1.5087,60.4182 0,33.23 -0.2731,61.12997 -0.607,61.99997 -0.5291,1.3788 -3.5522,1.5818 -23.559,1.5818 -15.0467,0 -22.7392,-0.3444 -22.334,-1 z m 51.107,-0.5818 c -0.983,-2.5616 -0.6938,-19.2465 0.3447,-19.8884 1.0454,-0.6461 38.4899,17.7688 40.7729,20.0518 1.2245,1.2245 -1.447,1.4184 -19.5462,1.4184 -18.1943,0 -21.0446,-0.209 -21.5714,-1.5818 z m 50.3931,0.6748 c -0.825,-0.4342 -12.6375,-6.2565 -26.2501,-12.9386 l -24.75,-12.14907 v -23.034 c 0,-18.6729 0.2616,-23.1344 1.3814,-23.5641 1.414,-0.5426 92.7039,44.5479 95.8687,47.3522 1.4523,1.28666 1.75,3.29667 1.75,11.81377 0,5.6448 -0.2731,10.975 -0.607,11.845 -0.5297,1.3804 -3.4898,1.5743 -23.25,1.523 -12.4536,-0.032 -23.318,-0.414 -24.143,-0.8482 z m 51.5157,-1.343 c -0.2874,-1.2375 -0.6335,-7.1944 -0.7691,-13.2377 l -0.2466,-10.98757 -50.75,-25.4659 -50.7501,-25.4658 v -23.2965 c 0,-21.5406 0.1319,-23.2925 1.75,-23.2435 0.9625,0.029 34.6,16.5666 74.7501,36.75 l 73,36.697 0.2822,23 c 0.1551,12.64997 0.034,24.01247 -0.2691,25.24997 l -0.5512,2.25 h -22.9619 -22.9619 z m 51.0913,0.6682 c -0.3338,-0.87 -0.607,-12.5622 -0.607,-25.98257 v -24.4008 l -23.216,-11.7674 c -12.7688,-6.4721 -23.3754,-12.3121 -23.5702,-12.9779 -0.3888,-1.3289 42.5679,-23.2895 45.556,-23.2895 0.983,0 12.3494,5.3111 25.2587,11.8024 l 23.4715,11.8023 0.2788,35.9477 c 0.1533,19.77117 0.032,36.96007 -0.2691,38.19757 l -0.5478,2.25 h -22.874 c -19.9355,0 -22.9519,-0.2032 -23.4809,-1.5818 z m 51.643,0.086 c -0.9523,-1.0816 -1.25,-10.3039 -1.25,-38.72107 v -37.3013 l -25.5051,-12.7409 c -14.0278,-7.0075 -26.1814,-12.7409 -27.008,-12.7409 -0.8266,0 -12.2957,5.4 -25.4869,12 -13.1912,6.6 -24.6665,12 -25.5007,12 -1.9739,0 -45.504,-21.7769 -45.484,-22.7543 0.01,-0.4102 0.3459,-1.2546 0.75,-1.8767 1.2566,-1.9344 93.0816,-47.369 95.7345,-47.369 1.3795,0 24.5564,11.0259 51.5042,24.502 l 48.99604,24.502 v 49.4162 c 0,27.1789 -0.2731,50.12797 -0.607,50.99797 -0.5288,1.3781 -3.4582,1.5769 -22.75004,1.5438 -17.8373,-0.031 -22.386,-0.3141 -23.393,-1.4578 z M 538.5043,933.11213 c -56.51586,-28.3075 -75.32572,-38.1659 -75.7363,-39.694 -0.30043,-1.1182 -0.55239,-47.2622 -0.5599,-102.5422 l -0.0136,-100.5091 -25.5051,-12.7409 c -14.02781,-7.00752 -26.18141,-12.74092 -27.008,-12.74092 -0.82659,0 -12.2957,5.4 -25.4869,12.00002 -13.1912,6.6 -24.66651,12 -25.5007,12 -1.97389,0 -45.50406,-21.77692 -45.48399,-22.75432 0.008,-0.4102 0.34592,-1.2546 0.75,-1.8767 1.25658,-1.9344 93.08156,-47.369 95.73443,-47.369 1.37954,0 24.55646,11.0259 51.50426,24.502 l 48.996,24.502 0.0153,101.74802 c 0.008,55.9614 0.34592,102.2596 0.75,102.885 0.40408,0.6253 23.8799,12.6971 52.1685,26.8263 l 51.4339,25.6894 50.0661,-25.0868 c 27.5363,-13.7976 51.19116,-25.0609 52.56616,-25.0294 3.701,0.085 44.5,21.1384 44.5,22.9635 0,0.9845 -25.0877,14.1115 -72.99996,38.1971 -40.1501,20.1833 -73.4501,36.6957 -74,36.694 -0.55,0 -34.8355,-16.9504 -76.1902,-37.664 z m 25.6819,-38.2411 -49.99175,-24.9708 -0.0153,-101.7576 c -0.008,-55.9667 -0.34592,-102.26662 -0.75,-102.88872 -0.40408,-0.6221 -23.85952,-12.6917 -52.12319,-26.8212 l -51.3885,-25.6901 -50.12016,25.0712 c -27.56608,13.7892 -51.24125,25.0501 -52.61149,25.0243 -3.67884,-0.069 -44.49135,-21.1244 -44.49135,-22.9531 0,-0.9852 25.22113,-14.1554 73.48894,-38.3753 l 73.48893,-36.8753 75.70052,37.8398 c 57.00195,28.4931 75.83555,38.3425 76.24735,39.8753 0.3008,1.1195 0.5531,47.26462 0.5606,102.54462 l 0.014,100.5091 25.5051,12.7409 c 14.0278,7.0075 26.1814,12.7409 27.008,12.7409 0.8266,0 12.2957,-5.4 25.4869,-12 13.1912,-6.6 24.6665,-12 25.5007,-12 1.9739,0 45.50406,21.7769 45.48396,22.7544 -0.01,0.4101 -0.3459,1.2545 -0.75,1.8766 -0.6648,1.0233 -88.42556,45.3505 -93.93116,47.4437 -1.935,0.7357 -10.6136,-3.2607 -52.3117,-24.0887 z m 231.50816,13.2171 c -13.243,-6.7496 -21,-11.2572 -21,-12.2031 0,-0.9852 25.2213,-14.1555 73.4896,-38.3756 l 73.4895,-36.8756 49.5105,24.7279 c 27.2308,13.6004 50.29804,25.4266 51.26054,26.2806 1.57,1.393 1.75,3.896 1.75,24.3403 0,21.4971 -0.1031,22.7677 -1.8198,22.4371 -1.0009,-0.1927 -24.01314,-11.449 -51.13844,-25.0138 l -49.3186,-24.6633 -50.1203,25.0712 c -27.5661,13.7892 -51.2413,25.0501 -52.6115,25.0243 -1.3703,-0.026 -11.9415,-4.8632 -23.4915,-10.75 z m -105.99996,-53.006 -73,-36.6971 -0.2563,-75.3899 c -0.1709,-50.2448 0.084,-75.80062 0.7656,-76.62132 0.5621,-0.6773 46.6973,-24.0628 102.52266,-51.9679 l 101.5009,-50.7365 -0.2664,-26.1422 -0.2664,-26.1422 -25.2501,-12.7661 -25.25,-12.766 v -23.0153 c 0,-18.657 0.2616,-23.1157 1.3814,-23.5454 1.414,-0.5426 92.7039,44.5479 95.8687,47.3522 1.6221,1.4372 1.75,5.1558 1.75,50.8562 0,38.1574 -0.2826,49.5686 -1.25,50.4687 -0.6875,0.6398 -46.7,23.945 -102.2501,51.7895 L 664.6944,690.38503 v 51.9731 51.9731 l 50.74996,25.4535 50.75,25.4534 v 23.3235 c 0,21.5663 -0.1318,23.3194 -1.75,23.2705 -0.9625,-0.029 -34.6,-16.5667 -74.74996,-36.75 z m 80.49996,-37.6958 v -74.4987 l 74.9975,-37.5013 c 41.2485,-20.6257 75.786,-37.49962 76.75,-37.49762 2.1511,0.01 98.58174,48.18252 100.72044,50.32132 2.2764,2.2763 2.3032,46.675 0.028,46.675 -0.8272,0 -23.55044,-11.025 -50.49604,-24.5 -26.9456,-13.475 -49.6675,-24.5 -50.4932,-24.5 -0.8257,0 -24.4525,11.4788 -52.504,25.5084 l -51.0026,25.5083 v 49.9099 c 0,27.4504 -0.2836,50.649 -0.6303,51.5525 -0.6535,1.7029 -43.1943,23.5209 -45.8611,23.5209 -1.3314,0 -1.5087,-8.7535 -1.5087,-74.4987 z m -718.18169,26.1129 c -26.77499,-13.3842 -49.3874913,-25.0406 -50.2500013,-25.9031 -2.30858004,-2.3086 -2.36962004,-46.7111 -0.0642,-46.7111 0.8272,0 23.5504013,11.025 50.4960013,24.5 26.9456,13.475 49.67053,24.5 50.49985,24.5 0.82931,0 24.45611,-11.4759 52.504,-25.5019 l 50.99615,-25.5019 v -49.9163 c 0,-27.454 0.28366,-50.65552 0.63035,-51.55902 0.65345,-1.7029 43.19416,-23.5209 45.86096,-23.5209 1.33142,0 1.50869,8.7535 1.50869,74.49872 v 74.4987 l -74.99737,37.5013 c -41.24855,20.6257 -75.78605,37.4899 -76.75,37.4758 -0.96395,-0.014 -23.65943,-10.9761 -50.43441,-24.3603 z m 537.18173,12.5899 -23.5,-11.7041 -0.5,-102.5 -0.5,-102.50002 -77.47808,-38.8696 -77.47812,-38.8696 -23.61576,11.7751 c -12.98867,6.4763 -24.13601,11.4536 -24.77188,11.0606 -1.8232,-1.1268 -1.61085,-44.9742 0.22519,-46.498 2.11751,-1.7574 46.94726,-24.0866 48.37066,-24.0929 0.68858,0 46.7002,22.7194 102.24804,50.4944 55.54785,27.775 101.67305,50.5 102.50065,50.5 1.9821,0 153.78126,-75.9009 154.73396,-77.3684 0.4041,-0.6224 0.7416,-11.3425 0.75,-23.8226 0.01,-13.1436 0.4128,-22.9366 0.9599,-23.2748 0.5196,-0.321 11.0666,4.4713 23.438,10.6497 16.2928,8.1368 22.6446,11.7962 23.0418,13.2748 0.7551,2.8109 0.6946,43.4954 -0.069,46.3462 -0.5079,1.8964 -18.6751,11.3367 -102.4864,53.2557 l -101.86906,50.9508 v 77.47702 77.4769 l 23.216,11.7673 c 12.7688,6.4721 23.3754,12.3122 23.5702,12.9779 0.3938,1.3461 -42.6447,23.3189 -45.5275,23.2436 -0.9673,-0.025 -12.3337,-5.3128 -25.2587,-11.75 z m 382.51356,-13.4474 -49.9768,-24.9924 -23.6122,11.7734 c -12.9868,6.4753 -24.1325,11.4518 -24.7684,11.0588 -1.8232,-1.1268 -1.6108,-44.9742 0.2252,-46.498 2.1194,-1.7589 46.9479,-24.0866 48.3727,-24.0929 2.117,-0.01 99.60864,49.1124 100.93684,50.8577 1.7956,2.3594 1.8463,45.7166 0.054,46.4043 -0.6902,0.2648 -23.74444,-10.7651 -51.23164,-24.5109 z m -150.273,-25.5067 0.2595,-48.75 49,-24.6983 c 26.95,-13.584 49.7893,-24.7215 50.754,-24.75 1.9885,-0.059 99.30684,48.3662 101.39294,50.4523 1.0575,1.0576 1.3531,6.2834 1.3531,23.9246 0,20.5299 -0.1529,22.5714 -1.691,22.5714 -0.9301,0 -23.92994,-11.1087 -51.11074,-24.6859 l -49.4197,-24.6859 -26.3893,13.1834 -26.3893,13.1835 -0.015,24.7525 c -0.01,13.6138 -0.3459,25.2605 -0.75,25.8815 -1.1046,1.6977 -42.9069,22.3709 -45.2351,22.3709 -2.0008,0 -2.0163,-0.4312 -1.7591,-48.75 z m -104.7406,0.6037 c -25.29996,-12.6844 -46.78746,-23.7603 -47.74996,-24.6131 -1.622,-1.4372 -1.75,-5.1558 -1.75,-50.8561 0,-38.1575 0.2826,-49.5686 1.25,-50.4688 0.6875,-0.6398 46.69996,-23.94502 102.24996,-51.78942 l 101.0001,-50.6263 v -51.9854 -51.9855 l -50.75,-25.468 -50.7501,-25.4681 v -23.2965 c 0,-21.54064 0.1319,-23.2925 1.75,-23.24353 0.9625,0.0291 34.6,16.56663 74.7501,36.75003 l 73,36.697 0.2563,75.7609 0.2563,75.7609 -3.2563,1.9843 c -1.791,1.0913 -47.9262,24.3027 -102.5227,51.5807 l -99.2665,49.59642 0.2664,26.1584 0.2664,26.1584 25.2684,12.7753 25.2684,12.7753 -0.2684,23.2116 c -0.2281,19.729 -0.4934,23.2447 -1.7684,23.4327 -0.825,0.1217 -22.2,-10.1569 -47.5,-22.8412 z M 51.79751,792.25493 c -26.89331,-13.4865 -49.5058113,-25.1298 -50.2500013,-25.874 -1.05749004,-1.0575 -1.35306004,-6.2837 -1.35306004,-23.9245 0,-20.6624 0.14518,-22.5714 1.71656004,-22.5714 0.94411,0 23.9289713,11.1161 51.0774613,24.7025 l 49.3609,24.7026 26.42254,-13.2001 26.42254,-13.2001 0.0153,-24.7524 c 0.008,-13.6139 0.34592,-25.2606 0.75,-25.8816 1.10465,-1.6977 42.90695,-22.37092 45.23512,-22.37092 2.00075,0 2.01631,0.4312 1.75909,48.75002 l -0.25951,48.75 -49,24.6983 c -26.95,13.584 -49.9,24.697 -51,24.6953 -1.1,0 -24.00362,-11.0373 -50.89694,-24.5237 z m 689.70895,-13.6387 c -16.0207,-8.0496 -22.3404,-11.7158 -22.7363,-13.1898 -0.7552,-2.8109 -0.6947,-43.4954 0.069,-46.3463 0.5079,-1.8964 18.6749,-11.3366 102.4864,-53.25572 l 101.869,-50.9508 v -77.4769 -77.4769 l -23.216,-11.7674 c -12.7688,-6.4721 -23.3754,-12.3121 -23.5702,-12.9779 -0.3888,-1.3289 42.5679,-23.2895 45.556,-23.2895 0.983,0 12.3494,5.3112 25.2587,11.8026 l 23.4715,11.8026 0.5,102.4474 0.5,102.4474 24.6365,12.5 c 13.55014,6.875 25.36264,13.1176 26.25004,13.8724 1.3973,1.1886 1.6135,4.4261 1.6135,24.16202 v 22.7895 l -2.25,-0.2639 c -1.2375,-0.1452 -23.96064,-11.1306 -50.49594,-24.412 -26.5353,-13.28142 -48.9239,-24.14802 -49.7526,-24.14802 -1.2804,0 -153.0778,75.34872 -154.5016,76.69092 -0.275,0.2593 -0.725,11.0855 -1,24.0583 -0.3062,14.4454 -0.8876,23.6922 -1.5,23.8586 -0.55,0.1495 -10.9845,-4.745 -23.1879,-10.8766 z M 51.72179,741.21703 c -26.93496,-13.5073 -49.5331513,-25.2952 -50.2182013,-26.1954 -1.79188004,-2.3545 -1.84723004,-45.78172 -0.0591,-46.40712 0.6875,-0.2405 23.7417613,10.80012 51.2316813,24.53452 l 49.98169,24.9717 23.6122,-11.7734 c 12.98671,-6.4753 24.13245,-11.4518 24.76832,-11.0588 1.75496,1.0846 1.61851,44.9679 -0.14438,46.4309 -2.52774,2.0979 -46.99426,24.1648 -48.58527,24.111 -0.88783,-0.03 -23.65194,-11.1061 -50.5869,-24.6134 z m 0.97266,-50.991 c -26.95,-13.5023 -49.7875013,-25.24742 -50.7500013,-26.10032 -1.57010004,-1.3913 -1.75000004,-3.8932 -1.75000004,-24.3383 0,-21.3754 0.11116,-22.7661 1.79364004,-22.4421 0.9865,0.1899 24.0194713,11.4483 51.1843713,25.0186 l 49.39074,24.6732 50.06562,-25.0864 c 27.5361,-13.7976 51.19063,-25.0607 52.56563,-25.0292 3.70095,0.085 44.5,21.1384 44.5,22.9635 0,0.9845 -25.08757,14.1115 -73,38.19712 -40.15,20.1833 -73.45,36.6962 -74,36.6953 -0.55,-9e-4 -23.05,-11.049 -50,-24.5514 z M 52.18626,638.87101 2.1944487,613.90021 v -102.9486 c 0,-67.5537 -0.34381,-103.161 -1,-103.5666 -0.61953004,-0.3829 -1.00000004,-9.3246 -1.00000004,-23.50159 0,-21.51413 0.10793,-22.86278 1.80349004,-22.53624 0.99191,0.19102 11.9889913,5.43409 24.4379413,11.65126 16.4011,8.19092 22.78548,11.8661 23.18286,13.34526 0.30162,1.12273 0.55454,47.27041 0.56206,102.55041 l 0.0136,100.5091 25.5051,12.7409 c 14.027805,7.0075 26.18141,12.7409 27.008,12.7409 0.82659,0 12.2957,-5.4 25.4869,-12 13.1912,-6.6 24.66651,-12 25.5007,-12 1.97389,0 45.50406,21.7769 45.48399,22.7544 -0.008,0.4101 -0.34592,1.2545 -0.75,1.8766 -0.66482,1.0233 -88.42562,45.3505 -93.93118,47.4437 -1.93501,0.7357 -10.613665,-3.2607 -52.3117,-24.0887 z m 946.2423,12.1383 c -16.7632,-8.3725 -23.2608,-12.103 -23.6585,-13.5834 -0.3015,-1.1225 -0.5544,-47.27 -0.5619,-102.55 l -0.014,-100.5091 -25.5051,-12.7409 c -14.0278,-7.0075 -26.1814,-12.7409 -27.008,-12.7409 -0.8266,0 -12.2957,5.4 -25.4869,12 -13.1912,6.6 -24.6665,12 -25.5007,12 -1.9739,0 -45.504,-21.7769 -45.484,-22.7543 0.01,-0.4102 0.3459,-1.2546 0.75,-1.8767 1.2566,-1.9344 93.0816,-47.36899 95.7345,-47.36899 1.3795,0 24.5564,11.0259 51.5042,24.502 l 48.99604,24.50199 v 102.939 c 0,67.5473 0.3438,103.1515 1,103.557 0.6193,0.3828 1,9.2882 1,23.3924 0,18.2649 -0.2629,22.7743 -1.3279,22.7743 -0.7303,0 -11.7274,-5.1941 -24.43804,-11.5424 z m -820.73411,-51.9272 -73,-36.6971 -0.25636,-75.3899 c -0.17086,-50.2448 0.0845,-75.8006 0.76563,-76.6213 0.5621,-0.6773 46.69734,-24.06283 102.52276,-51.96792 l 101.50076,-50.73652 -0.2664,-26.14218 -0.26639,-26.14217 -25.25,-12.76608 -25.25,-12.76608 v -23.0153 c 0,-18.657 0.26158,-23.11569 1.38136,-23.54539 1.41402,-0.54261 92.70379,44.54798 95.86864,47.35222 1.62204,1.43722 1.75,5.15586 1.75,50.85619 0,38.15744 -0.28263,49.56859 -1.25,50.46877 -0.6875,0.63976 -46.7,23.945 -102.25,51.78943 l -101,50.62623 v 51.9731 51.9731 l 50.75,25.4535 50.75,25.4534 v 23.3235 c 0,21.5663 -0.13184,23.3194 -1.75,23.2705 -0.9625,-0.029 -34.6,-16.5667 -74.75,-36.75 z m 80.5,-37.6958 v -74.4987 l 74.99737,-37.5013 c 41.24855,-20.6257 75.7705,-37.5013 76.71544,-37.5013 0.94495,0 47.33296,22.8152 103.08448,50.7004 l 101.36636,50.7003 26.4181,-13.1979 26.4182,-13.1979 0.015,-24.7524 c 0.01,-13.6139 0.3459,-25.2606 0.75,-25.8816 1.1047,-1.6977 42.90696,-22.3709 45.23506,-22.3709 2.0008,0 2.0163,0.4312 1.7591,48.75 l -0.2595,48.75 -48.99996,24.6983 c -26.95,13.584 -49.7884,24.7215 -50.7519,24.75 -0.9636,0.028 -47.2002,-22.6733 -102.74805,-50.4483 -55.54784,-27.775 -101.67072,-50.5 -102.49528,-50.5 -0.82456,0 -24.45044,11.4788 -52.50196,25.5084 l -51.00276,25.5083 v 49.9099 c 0,27.4504 -0.28366,50.649 -0.63035,51.5525 -0.65345,1.7029 -43.19416,23.5209 -45.86096,23.5209 -1.33142,0 -1.50869,-8.7535 -1.50869,-74.4987 z m -181,38.7028 -23.5,-11.7041 -0.5,-102.5 -0.5,-102.49999 -24.63652,-12.5 C 14.50784,364.01002 2.6953387,357.76742 1.8079287,357.01258 0.41063866,355.82402 0.19444866,352.58657 0.19444866,332.85063 v -22.7895 l 2.25000004,0.26394 c 1.2375,0.14517 23.9606613,11.13055 50.4959213,24.41195 26.53525,13.2814 48.92392,24.148 49.7526,24.148 1.98353,0 153.78277,-75.89993 154.73617,-77.36839 0.40408,-0.62239 0.74158,-11.34255 0.75,-23.82259 0.009,-13.14365 0.41276,-22.93662 0.95992,-23.27479 0.51954,-0.32109 11.06661,4.47126 23.43794,10.64967 16.29275,8.13681 22.6445,11.79618 23.04173,13.27478 0.75515,2.81086 0.69464,43.49537 -0.0689,46.34625 -0.50791,1.89634 -18.67496,11.33662 -102.48634,53.2557 l -101.86904,50.95076 v 77.477 77.4769 l 23.21602,11.7673 c 12.76881,6.4721 23.37539,12.3122 23.57018,12.9779 0.39379,1.3461 -42.64472,23.3189 -45.52751,23.2436 -0.96728,-0.025 -12.333695,-5.3128 -25.25869,-11.75 z m 434.13265,-38.9076 -101.36735,-50.6617 -26.38265,13.1802 -26.38265,13.1801 -0.0153,24.7525 c -0.008,13.6138 -0.34592,25.2605 -0.75,25.8815 -1.10465,1.6977 -42.90695,22.3709 -45.23512,22.3709 -2.00075,0 -2.01631,-0.4312 -1.75909,-48.75 l 0.25951,-48.75 49,-24.6983 c 26.95,-13.584 49.78838,-24.7215 50.75196,-24.75 0.96358,-0.028 47.2002,22.6733 102.74804,50.4483 55.54785,27.775 101.67365,50.5 102.50185,50.5 0.8282,0 24.4541,-11.4759 52.502,-25.5019 l 50.99606,-25.5019 v -49.9163 c 0,-27.454 0.2837,-50.6555 0.6304,-51.559 0.6534,-1.7029 43.1941,-23.52089 45.8609,-23.52089 1.3314,0 1.5087,8.75349 1.5087,74.49869 v 74.4987 l -74.99736,37.5013 c -41.2485,20.6257 -75.786,37.4919 -76.75,37.4804 -0.9639,-0.011 -47.3679,-22.8187 -103.1199,-50.6826 z m -306.63265,0.5572 c -25.3,-12.6844 -46.7875,-23.7603 -47.75,-24.6131 -1.62204,-1.4372 -1.75,-5.1558 -1.75,-50.8561 0,-38.1575 0.28263,-49.5686 1.25,-50.4688 0.6875,-0.6398 46.7,-23.945 102.25,-51.78945 l 101,-50.62624 v -51.98544 -51.98544 l -50.75,-25.46808 -50.75,-25.46807 V 155.1815 c 0,-21.54063 0.1319,-23.29249 1.75,-23.24352 0.9625,0.0291 34.6,16.56663 74.75,36.75 l 73,36.69704 0.25629,75.76087 0.25629,75.76088 -3.25629,1.9843 c -1.79096,1.09137 -47.92618,24.3027 -102.52271,51.58074 l -99.26643,49.5964 0.26643,26.1584 0.26642,26.1584 25.26837,12.7753 25.26837,12.7753 -0.26837,23.2116 c -0.22811,19.729 -0.49342,23.2447 -1.76837,23.4327 -0.825,0.1217 -22.2,-10.1569 -47.5,-22.8412 z m 24.81209,-39.1225 c -16.02066,-8.0496 -22.34036,-11.7158 -22.73635,-13.1898 -0.75516,-2.8109 -0.69467,-43.4954 0.0689,-46.3463 0.50791,-1.8964 18.67496,-11.3366 102.48634,-53.2557 l 101.86902,-50.9508 v -77.47693 -77.47692 l -23.21602,-11.76737 c -12.76881,-6.47205 -23.37539,-12.31211 -23.57018,-12.9779 -0.38878,-1.32887 42.56784,-23.28947 45.556,-23.28947 0.98295,0 12.34936,5.31116 25.25869,11.80258 l 23.47151,11.80257 0.5,102.44743 0.5,102.44742 77.47805,38.86959 77.4782,38.8696 23.6157,-11.7751 c 12.9887,-6.4763 24.136,-11.4536 24.7719,-11.0606 1.755,1.0846 1.6185,44.9679 -0.1444,46.4309 -2.2014,1.8271 -46.8841,24.1656 -48.3372,24.1656 -0.7514,0 -46.8144,-22.725 -102.36225,-50.5 -55.54784,-27.775 -101.67313,-50.5 -102.50064,-50.5 -1.27895,0 -153.0771,75.3501 -154.49936,76.6909 -0.275,0.2593 -0.725,11.0855 -1,24.0583 -0.30622,14.4454 -0.88756,23.6922 -1.5,23.8586 -0.55,0.1495 -10.98456,-4.745 -23.18791,-10.8766 z M 538.5043,421.11211 c -56.51586,-28.30753 -75.32572,-38.16594 -75.7363,-39.69405 -0.30043,-1.11817 -0.55239,-47.26214 -0.5599,-102.54216 L 462.1945,178.36679 436.6894,165.6259 c -14.02781,-7.00748 -26.18141,-12.74088 -27.008,-12.74088 -0.82659,0 -12.2957,5.4 -25.4869,12 -13.1912,6.6 -24.66651,12 -25.5007,12 -1.97389,0 -45.50406,-21.77691 -45.48399,-22.75435 0.008,-0.41011 0.34592,-1.25459 0.75,-1.87663 1.25658,-1.93438 93.08156,-47.36902 95.73443,-47.36902 1.37954,0 24.55646,11.0259 51.50426,24.502 l 48.996,24.502 0.0153,101.748 c 0.008,55.9614 0.34592,102.25963 0.75,102.88495 0.40408,0.62532 23.8799,12.69716 52.1685,26.82632 l 51.4339,25.68932 50.0661,-25.08666 c 27.5363,-13.79769 51.19116,-25.06095 52.56616,-25.02946 3.701,0.0847 44.5,21.13845 44.5,22.96353 0,0.9845 -25.0877,14.11149 -72.99996,38.19709 -40.1501,20.1833 -73.4501,36.6957 -74,36.694 -0.55,0 -34.8355,-16.9504 -76.1902,-37.664 z m 25.6819,-38.24111 -49.99175,-24.97075 -0.0153,-101.75761 c -0.008,-55.96669 -0.34592,-102.26663 -0.75,-102.88875 -0.40408,-0.62213 -23.85952,-12.69166 -52.12319,-26.82119 l -51.3885,-25.69004 -50.12016,25.07118 c -27.56608,13.78915 -51.24125,25.05009 -52.61149,25.02432 -3.67884,-0.0692 -44.49135,-21.12441 -44.49135,-22.95314 0,-0.98521 25.22113,-14.15546 73.48894,-38.375305 l 73.48893,-36.875296 75.70052,37.839766 c 57.00195,28.493115 75.83555,38.342565 76.24735,39.875305 0.3008,1.11954 0.5531,47.26463 0.5606,102.54465 l 0.014,100.50911 25.5051,12.74089 c 14.0278,7.00748 26.1814,12.74088 27.008,12.74088 0.8266,0 12.2957,-5.4 25.4869,-12 13.1912,-6.6 24.6665,-12 25.5007,-12 1.9739,0 45.50406,21.77691 45.48396,22.75435 -0.01,0.41011 -0.3459,1.25457 -0.75,1.87659 -0.6648,1.02339 -88.42556,45.35055 -93.93116,47.44375 -1.935,0.7357 -10.6136,-3.2607 -52.3117,-24.08871 z m 231.50816,13.21716 c -13.243,-6.74963 -21,-11.25721 -21,-12.20314 0,-0.98521 25.2213,-14.15556 73.4896,-38.37558 l 73.4895,-36.87558 49.5105,24.72789 c 27.2308,13.60034 50.29804,25.42659 51.26054,26.28056 1.57,1.39302 1.75,3.89597 1.75,24.34028 0,21.49702 -0.1031,22.76772 -1.8198,22.43712 -1.0009,-0.1927 -24.01314,-11.44895 -51.13844,-25.01379 l -49.3186,-24.66335 -50.1203,25.07123 c -27.5661,13.78917 -51.2413,25.05011 -52.6115,25.02431 -1.3703,-0.026 -11.9415,-4.8632 -23.4915,-10.74995 z m -105.99996,-53.0061 -73,-36.69704 -0.2563,-75.38987 c -0.1709,-50.24488 0.084,-75.8006 0.7656,-76.6213 0.5621,-0.67729 46.6899,-24.05918 102.50626,-51.95975 l 101.4845,-50.728341 v -24.31859 c 0,-13.37521 0.2732,-25.0303786 0.607,-25.9003586 0.5289,-1.37835009 3.5376,-1.58179009 23.393,-1.58179009 19.8554,0 22.8641,0.20344 23.393,1.58179009 0.3339,0.86998 0.607,17.7272386 0.607,37.4605686 0,27.416 -0.2948,36.153146 -1.25,37.041966 -0.6875,0.63976 -46.7,23.945001 -102.2501,51.789435 L 664.6944,178.38502 v 51.97311 51.97312 l 50.74996,25.45343 50.75,25.45344 v 23.32345 c 0,21.56632 -0.1318,23.31946 -1.75,23.27049 -0.9625,-0.0291 -34.6,-16.56663 -74.74996,-36.75 z m 80.49996,-37.69572 v -74.49869 l 74.9975,-37.50131 c 41.2485,-20.62573 75.786,-37.49966 76.75,-37.49764 2.1511,0.005 98.58174,48.18252 100.72044,50.32128 2.2764,2.27636 2.3032,46.67504 0.028,46.67504 -0.8272,0 -23.55044,-11.025 -50.49604,-24.5 -26.9456,-13.475 -49.6675,-24.5 -50.4932,-24.5 -0.8257,0 -24.4525,11.47876 -52.504,25.50836 l -51.0026,25.50836 v 49.90985 c 0,27.45042 -0.2836,50.64905 -0.6303,51.55252 -0.6535,1.70287 -43.1943,23.52091 -45.8611,23.52091 -1.3314,0 -1.5087,-8.75349 -1.5087,-74.49868 z M 52.01267,331.4992 C 25.23768,318.11501 2.6251787,306.45861 1.7626687,305.59609 c -2.30858004,-2.30857 -2.36962004,-46.71107 -0.0642,-46.71107 0.8272,0 23.5504013,11.025 50.4960013,24.5 26.9456,13.475 49.67053,24.5 50.49985,24.5 0.82931,0 24.45611,-11.47587 52.504,-25.50192 l 50.99615,-25.50193 v -49.91629 c 0,-27.45395 0.28366,-50.65548 0.63035,-51.55895 0.65345,-1.70287 43.19416,-23.52091 45.86096,-23.52091 1.33142,0 1.50869,8.75349 1.50869,74.49868 v 74.49869 L 179.1971,318.3837 c -41.24855,20.62573 -75.78605,37.48986 -76.75,37.47586 -0.96395,-0.014 -23.65943,-10.97617 -50.43441,-24.36036 z m 537.18173,12.58988 -23.5,-11.70406 -0.5,-102.5 -0.5,-102.5 -77.47808,-38.869605 -77.47812,-38.869586 -23.61576,11.7751 c -12.98867,6.4763 -24.13601,11.453556 -24.77188,11.060566 -1.8232,-1.1268 -1.61085,-44.974186 0.22519,-46.497966 2.11751,-1.75738 46.94726,-24.0866386 48.37066,-24.0929486 0.68858,-0.003 46.7002,22.7194386 102.24804,50.4944386 55.54785,27.774996 101.67305,50.500011 102.50065,50.500011 1.9821,0 153.78126,-75.900951 154.73396,-77.368401 0.4041,-0.62239 0.7416,-5.93231 0.75,-11.799821 0.01,-5.8675176 0.2885,-11.3800176 0.6223,-12.2499976 0.5277,-1.37526009 3.4453,-1.58179009 22.345,-1.58179009 19.7896,0 21.8865,0.16393 23.3931,1.82874009 1.4326,1.58293 1.6532,4.70806 1.6414,23.2499986 -0.01,11.78169 -0.2915,22.45848 -0.631,23.72619 -0.5079,1.89634 -18.6751,11.33662 -102.4865,53.255711 L 613.1944,152.89643 v 77.47693 77.47692 l 23.216,11.76737 c 12.7688,6.47205 23.3754,12.31211 23.5702,12.9779 0.3938,1.34602 -42.6447,23.31883 -45.5275,23.24353 -0.9673,-0.0253 -12.3337,-5.31276 -25.2587,-11.75 z m 382.51356,-13.44734 -49.9768,-24.99239 -23.6122,11.77334 c -12.9868,6.47533 -24.1325,11.4518 -24.7684,11.05881 -1.8232,-1.1268 -1.6108,-44.97419 0.2252,-46.49797 2.1194,-1.75893 46.9479,-24.08664 48.3727,-24.09295 2.117,-0.009 99.60864,49.11247 100.93684,50.85777 1.7956,2.35937 1.8463,45.71658 0.054,46.40423 -0.6902,0.26485 -23.74444,-10.76503 -51.23164,-24.51084 z m -150.273,-25.50672 0.2595,-48.75 49,-24.69828 c 26.95,-13.58406 49.7893,-24.72156 50.754,-24.75 1.9885,-0.0586 99.30684,48.36618 101.39294,50.4523 1.0575,1.05756 1.3531,6.28334 1.3531,23.92455 0,20.52996 -0.1529,22.57143 -1.691,22.57143 -0.9301,0 -23.92994,-11.10867 -51.11074,-24.68593 l -49.4197,-24.68592 -26.3893,13.18347 -26.3893,13.18347 -0.015,24.75246 c -0.01,13.61385 -0.3459,25.26055 -0.75,25.88157 -1.1046,1.69768 -42.9069,22.37088 -45.2351,22.37088 -2.0008,0 -2.0163,-0.43121 -1.7591,-48.75 z m -104.7406,0.60366 C 691.3944,293.05432 669.9069,281.97845 668.9444,281.12563 c -1.622,-1.43721 -1.75,-5.15584 -1.75,-50.85617 0,-38.15744 0.2826,-49.56859 1.25,-50.46877 0.6875,-0.63976 46.69996,-23.945 102.24996,-51.78943 l 101.0001,-50.626245 0.5298,-38.499996 c 0.2914,-21.175 0.6289,-38.61249869 0.75,-38.74999869 0.1211,-0.1375 10.5221,-0.25 23.1132,-0.25 19.953,0 22.971,0.20314 23.5,1.58179009 0.3339,0.86998 0.607,23.6015886 0.607,50.5146986 v 48.932921 l -3.25,1.98048 c -1.7875,1.08925 -47.9199,24.29886 -102.5164,51.5769 l -99.2665,49.59643 0.2664,26.15839 0.2664,26.15839 25.2684,12.7753 25.2684,12.77529 -0.2684,23.21155 c -0.2281,19.72909 -0.4934,23.24474 -1.7684,23.43277 -0.825,0.12167 -22.2,-10.15689 -47.5,-22.84125 z M 51.79751,280.25486 C 24.9042,266.76839 2.2916987,255.12513 1.5475087,254.38094 0.49001866,253.32345 0.19444866,248.0972 0.19444866,230.45645 c 0,-20.66245 0.14518,-22.57143 1.71656004,-22.57143 0.94411,0 23.9289713,11.11614 51.0774613,24.70253 l 49.3609,24.70253 26.42254,-13.20008 26.42254,-13.20007 0.0153,-24.75246 c 0.008,-13.61385 0.34592,-25.26055 0.75,-25.88157 1.10465,-1.69768 42.90695,-22.37088 45.23512,-22.37088 2.00075,0 2.01631,0.43121 1.75909,48.75 l -0.25951,48.75 -49,24.69828 c -26.95,13.58406 -49.9,24.69697 -51,24.69535 -1.1,-0.002 -24.00362,-11.03732 -50.89694,-24.52379 z m 689.70895,-13.63863 c -16.0207,-8.04961 -22.3404,-11.71579 -22.7363,-13.18979 -0.7552,-2.81093 -0.6947,-43.49541 0.069,-46.34635 0.5079,-1.89634 18.6749,-11.33662 102.4864,-53.2557 l 101.869,-50.95077 V 52.961099 c 0,-27.45188 0.2732,-50.6243086 0.607,-51.4942886 0.529,-1.37865009 3.5471,-1.58179009 23.5,-1.58179009 12.5912,0 22.9972,0.1125 23.1245,0.25 0.1273,0.1375 0.4648,29.04999869 0.75,64.24999869 l 0.5185,64.000001 24.6365,12.5 c 13.55014,6.875 25.36264,13.1176 26.25004,13.87244 1.3973,1.18856 1.6135,4.42601 1.6135,24.16195 v 22.7895 l -2.25,-0.26394 c -1.2375,-0.14517 -23.96064,-11.13055 -50.49594,-24.41195 -26.5353,-13.2814 -48.9239,-24.148 -49.7526,-24.148 -1.2804,0 -153.0778,75.34867 -154.5016,76.69093 -0.275,0.25926 -0.725,11.08547 -1,24.05824 -0.3062,14.44543 -0.8876,23.69219 -1.5,23.85864 -0.55,0.14948 -10.9845,-4.74499 -23.1879,-10.8766 z M 51.72179,229.21699 C 24.78683,215.70969 2.1886387,203.92179 1.5035887,203.02164 c -1.79188004,-2.35451 -1.84723004,-45.78176 -0.0591,-46.40714 0.6875,-0.24045 23.7417613,10.80007 51.2316813,24.53449 l 49.98169,24.97167 23.6122,-11.77332 c 12.98671,-6.47533 24.13245,-11.45179 24.76832,-11.0588 1.75496,1.08462 1.61851,44.96784 -0.14438,46.4309 -2.52774,2.09784 -46.99426,24.16479 -48.58527,24.11093 -0.88783,-0.0301 -23.65194,-11.10608 -50.5869,-24.61338 z m 0.97266,-50.99094 C 25.74445,164.72372 2.9069487,152.97857 1.9444487,152.12571 0.37434866,150.73445 0.19444866,148.23253 0.19444866,127.78745 c 0,-21.37539 0.11116,-22.76619 1.79364004,-22.44217 0.9865,0.18998 24.0194713,11.44836 51.1843713,25.01862 l 49.39074,24.67321 50.06562,-25.08644 c 27.5361,-13.79753 51.19063,-25.06067 52.56563,-25.02918 3.70095,0.0847 44.5,21.13845 44.5,22.96353 0,0.9845 -25.08757,14.1115 -73,38.19704 -40.15,20.18337 -73.45,36.69628 -74,36.69535 -0.55,-9.3e-4 -23.05,-11.04904 -50,-24.55136 z M 52.18626,126.871 2.1944487,101.90026 V 52.474419 c 0,-27.1842 0.27314,-50.1376286 0.60699,-51.0076086 0.528,-1.37595009 3.46522,-1.58179009 22.5714313,-1.58179009 17.70251,0 22.24163,0.2772 23.39301,1.42857009 1.18707,1.18707 1.42857,7.73931 1.42857,38.7591186 v 37.330536 l 25.5051,12.74089 c 14.027805,7.00748 26.18141,12.740895 27.008,12.740895 0.82659,0 12.2957,-5.400015 25.4869,-12.000015 13.1912,-6.6 24.66651,-12 25.5007,-12 1.97389,0 45.50406,21.776925 45.48399,22.754365 -0.008,0.41011 -0.34592,1.25457 -0.75,1.87659 -0.66482,1.02338 -88.42562,45.35055 -93.93118,47.44375 -1.93501,0.7357 -10.613665,-3.26069 -52.3117,-24.08872 z m 946.2423,12.13827 c -16.7632,-8.37242 -23.2608,-12.10294 -23.6585,-13.58334 -0.3015,-1.1225 -0.5544,-29.185555 -0.5619,-62.362341 -0.012,-50.958281 0.2081,-60.5431686 1.4149,-61.7499986 1.1514,-1.15137009 5.6905,-1.42857009 23.393,-1.42857009 19.10624,0 22.04344,0.20584 22.57144,1.58179009 0.3339,0.86998 0.607,24.2434186 0.607,51.9409786 0,32.494106 0.3548,50.578451 1,50.977231 0.6193,0.38275 1,9.28816 1,23.39235 0,18.26492 -0.2629,22.77432 -1.3279,22.77432 -0.7303,0 -11.7274,-5.19409 -24.43804,-11.54242 z m -820.73411,-51.927215 -73,-36.697036 -0.28214,-23 c -0.15517,-12.65 -0.0341,-24.0124986 0.26905,-25.2499986 l 0.55119,-2.25000009 h 22.9619 22.9619 l 0.52244,2.25000009 c 0.28735,1.2375 0.63343,7.1889 0.76906,13.2253386 l 0.2466,10.97533 50.75,25.45122 50.75,25.451206 v 23.323465 c 0,21.56631 -0.13184,23.31945 -1.75,23.27048 -0.9625,-0.0291 -34.6,-16.56663 -74.75,-36.750005 z m 80.5,-23.615246 c 0,-33.23002 0.27314,-61.1300186 0.60699,-61.9999986 0.528,-1.37595009 3.46522,-1.58179009 22.57143,-1.58179009 17.70251,0 22.24163,0.2772 23.39301,1.42857009 1.1984,1.19841 1.42857,9.1605176 1.42857,49.4182086 0,26.394306 -0.28366,48.728836 -0.63035,49.632321 -0.65345,1.70287 -43.19416,23.5209 -45.86096,23.5209 -1.32827,0 -1.50869,-7.22506 -1.50869,-60.418211 z m -181,24.622266 -23.5,-11.70406 -0.27878,-35.999996 c -0.15333,-19.8 -0.0323,-37.0124986 0.26905,-38.2499986 l 0.54783,-2.25000009 h 22.87396 c 19.935565,0 22.95194,0.2032 23.48095,1.58179009 0.33385,0.86998 0.60699,12.5621586 0.60699,25.9826286 v 24.40084 l 23.21602,11.76737 c 12.76881,6.47205 23.37539,12.312106 23.57018,12.977896 0.39379,1.34602 -42.64472,23.318831 -45.52751,23.243531 -0.96728,-0.0253 -12.333695,-5.312761 -25.25869,-11.750001 z M 516.04414,51.535949 c -53.1577,-26.5698 -97.40235,-49.0607286 -98.32145,-49.9798286 -1.56146,-1.56147009 1.30226,-1.67015009 43.65033,-1.65655009 37.32297,0.012 46.06817,0.2747 49.55265,1.48861009 2.32717,0.81073 26.28783,12.5041786 53.24593,25.9854486 26.9582,13.48126 49.6904,24.51139 50.5162,24.51139 0.8258,0 24.3401,-11.31977 52.254,-25.15504 27.9139,-13.835271 51.53396,-25.5352686 52.48896,-25.99999874 0.9551,-0.46472995 11.5944,-0.84495995 23.6431,-0.84495995 19.0534,0 21.9856,0.20601 22.5135,1.58179009 0.3339,0.86998 0.607,6.49439 0.607,12.4986786 v 10.9169 L 691.197,62.383699 c -41.2485,20.625726 -75.786,37.492237 -76.75,37.481147 -0.9639,-0.0111 -45.2452,-21.759101 -98.40286,-48.328897 z m -206.84969,-1.45093 c 0,-35.84444 0.30014,-48.1001386 1.2,-48.9999986 1.79873,-1.79873009 92.9406,-1.72996009 92.25004,0.0696 -0.26796,0.69829 -10.60384,6.32199 -22.96862,12.4971276 l -22.48142,11.227511 -0.0153,24.75288 c -0.008,13.61408 -0.34592,25.260976 -0.75,25.881996 -1.10189,1.69344 -42.90398,22.37088 -45.22561,22.37088 -1.9841,0 -2.00909,-0.59458 -2.00909,-47.799996 z m -104.5,-0.34634 c -25.3,-12.68436 -46.7875,-23.76023 -47.75,-24.61305 -1.45227,-1.28678 -1.75,-3.29668 -1.75,-11.813811 0,-5.6447676 0.27314,-10.9750276 0.60699,-11.8450076 0.5285,-1.37726009 3.50419,-1.58179009 23.01357,-1.58179009 12.32362,0 23.18797,0.38139 24.14301,0.84753995 0.95504,0.46615014 12.88222,6.31910014 26.50484,13.00654774 l 24.76842,12.159011 -0.26842,23.23029 c -0.22815,19.74574 -0.49341,23.263476 -1.76841,23.451516 -0.825,0.12167 -22.2,-10.156886 -47.5,-22.841246 z M 566.7972,25.754659 C 541.5538,13.092998 520.25034,2.0837504 519.45624,1.2896404 c -1.2585,-1.25844009 4.5706,-1.38736009 45.39716,-1.00410009 56.2627,0.52816995 43.5934,0.52814995 99.0672,1.6e-4 37.33806,-0.35538 46.13146,-0.19335 45.73386,0.84271009 -0.6102,1.59008 -92.79976,47.7774186 -95.21286,47.7020186 -0.961,-0.03 -22.4009,-10.41412 -47.6444,-23.07577 z M 232.79106,12.246708 C 222.3942,7.0076304 213.24956,2.0829804 212.46963,1.3030604 c -1.22405,-1.22405009 1.4619,-1.41804009 19.63434,-1.41804009 20.99828,0 21.05383,0.006 21.61648,2.25000009 0.89709,3.57814 0.0767,19.0608686 -1.026,19.3631586 -0.55,0.15078 -9.50652,-4.01239 -19.90339,-9.251471 z"
       id="path833"
       inkscape:connector-curvature="0" />
  </g>
</svg>
